<svg width="48" height="48" viewBox="0 0 48 48" fill="none" xmlns="http://www.w3.org/2000/svg">
<path fill-rule="evenodd" clip-rule="evenodd" d="M46.5758 24.3034C46.5758 22.6184 46.4246 20.9982 46.1437 19.4427H23.7632V28.6348H36.5521C36.0012 31.6051 34.327 34.1219 31.8102 35.8069V41.7693H39.49C43.9834 37.6323 46.5758 31.5403 46.5758 24.3034Z" fill="#4285F4"/>
<path fill-rule="evenodd" clip-rule="evenodd" d="M23.7629 47.526C30.179 47.526 35.5581 45.3981 39.4898 41.7688L31.81 35.8064C29.6821 37.2322 26.9602 38.0747 23.7629 38.0747C17.5737 38.0747 12.335 33.8946 10.4664 28.2778H2.52734V34.4346C6.43746 42.2009 14.4737 47.526 23.7629 47.526Z" fill="#34A853"/>
<path fill-rule="evenodd" clip-rule="evenodd" d="M10.4666 28.278C9.99131 26.8522 9.72128 25.3292 9.72128 23.763C9.72128 22.1968 9.99131 20.6738 10.4666 19.248V13.0912H2.52753C0.918121 16.2992 0 19.9285 0 23.763C0 27.5975 0.918121 31.2268 2.52753 34.4348L10.4666 28.278Z" fill="#FBBC05"/>
<path fill-rule="evenodd" clip-rule="evenodd" d="M23.7629 9.45124C27.2518 9.45124 30.3842 10.6502 32.8469 13.0049L39.6626 6.18921C35.5473 2.35471 30.1682 0 23.7629 0C14.4737 0 6.43746 5.3251 2.52734 13.0913L10.4664 19.2481C12.335 13.6314 17.5737 9.45124 23.7629 9.45124Z" fill="#EA4335"/>
</svg>
